# xmcd
#
# Track frame offsets: 
#        150
#        20497
#        39355
#        63702
#        79292
#        102350
#        120717
#        142230
#        160425
#        177930
#
# Disc length: 2725 seconds
#
# Revision: 2
# Processed by: cddbd v1.5.2PL0 Copyright (c) Steve Scherf et al.
# Submitted via: ExactAudioCopy v0.99pb5
#
DISCID=8e0aa30a
DTITLE=Matia Bazar - Matia Bazar 
DYEAR=1988
DGENRE=Pop
TTITLE0=La prima stella della sera
TTITLE1=Vacanze romane
TTITLE2=Mi manchi ancora
TTITLE3=Souvenir
TTITLE4=Noi
TTITLE5=Ti sento
TTITLE6=Aristocratica
TTITLE7=Fantasia
TTITLE8=Il video sono io
TTITLE9=Stasera che sera
EXTD=Tracklist published by The Nightwing -=SuE ZidE=\n
EXTT0=
EXTT1=
EXTT2=
EXTT3=
EXTT4=
EXTT5=
EXTT6=
EXTT7=
EXTT8=
EXTT9=
PLAYORDER=
